<svg xmlns="http://www.w3.org/2000/svg" version="1.1" xmlns:xlink="http://www.w3.org/1999/xlink" xmlns:svgjs="http://svgjs.dev/svgjs" width="1000" height="121" viewBox="0 0 1000 121"><g transform="matrix(1,0,0,1,-0.6060606060606233,-0.3383356462083782)"><svg viewBox="0 0 396 48" data-background-color="#ffffff" preserveAspectRatio="xMidYMid meet" height="121" width="1000" xmlns="http://www.w3.org/2000/svg" xmlns:xlink="http://www.w3.org/1999/xlink"><g id="tight-bounds" transform="matrix(1,0,0,1,0.2400000000000091,0.13421579353720858)"><svg viewBox="0 0 395.52 47.7315684129256" height="47.7315684129256" width="395.52"><g><svg viewBox="0 0 395.52 47.7315684129256" height="47.7315684129256" width="395.52"><g><svg viewBox="0 0 465.13804387826207 56.13311175877239" height="47.7315684129256" width="395.52"><g><rect width="3.662910237176143" height="48.74076274278355" x="405.10877025438776" y="3.6961745079944173" fill="#ffffff" opacity="1" stroke-width="0" stroke="transparent" fill-opacity="1" class="rect-r$-0" data-fill-palette-color="primary" rx="1%" id="r$-0" data-palette-color="#6936f5"></rect></g><g transform="matrix(1,0,0,1,0,7.757904736559713)"><svg viewBox="0 0 395.52 40.61730228565296" height="40.61730228565296" width="395.52"><g id="textblocktransform"><svg viewBox="0 0 395.52 40.61730228565296" height="40.61730228565296" width="395.52" id="textblock"><g><svg viewBox="0 0 395.52 40.61730228565296" height="40.61730228565296" width="395.52"><g transform="matrix(1,0,0,1,0,0)"><svg width="395.52" viewBox="2.05 -37.85 465.90999999999997 47.85" height="40.61730228565296" data-palette-color="#6936f5"><path d="M15.45 0.4Q11.5 0.4 7.83-0.83 4.15-2.05 2.05-4L2.05-4 3.9-7.9Q5.9-6.1 9.03-4.98 12.15-3.85 15.45-3.85L15.45-3.85Q19.8-3.85 21.95-5.33 24.1-6.8 24.1-9.25L24.1-9.25Q24.1-11.05 22.93-12.18 21.75-13.3 20.03-13.9 18.3-14.5 15.15-15.25L15.15-15.25Q11.2-16.2 8.78-17.15 6.35-18.1 4.63-20.08 2.9-22.05 2.9-25.4L2.9-25.4Q2.9-28.2 4.38-30.45 5.85-32.7 8.85-34.05 11.85-35.4 16.3-35.4L16.3-35.4Q19.4-35.4 22.4-34.6 25.4-33.8 27.55-32.3L27.55-32.3 25.9-28.3Q23.7-29.7 21.2-30.43 18.7-31.15 16.3-31.15L16.3-31.15Q12.05-31.15 9.93-29.6 7.8-28.05 7.8-25.6L7.8-25.6Q7.8-23.8 9-22.68 10.2-21.55 11.98-20.93 13.75-20.3 16.8-19.6L16.8-19.6Q20.75-18.65 23.15-17.7 25.55-16.75 27.28-14.8 29-12.85 29-9.55L29-9.55Q29-6.8 27.5-4.53 26-2.25 22.95-0.93 19.9 0.4 15.45 0.4L15.45 0.4ZM59.55-13.1Q59.55-12.55 59.45-11.65L59.45-11.65 37.95-11.65Q38.4-8.15 41.02-6.03 43.65-3.9 47.55-3.9L47.55-3.9Q52.3-3.9 55.2-7.1L55.2-7.1 57.85-4Q56.05-1.9 53.37-0.8 50.7 0.3 47.4 0.3L47.4 0.3Q43.2 0.3 39.95-1.43 36.7-3.15 34.92-6.25 33.15-9.35 33.15-13.25L33.15-13.25Q33.15-17.1 34.87-20.2 36.6-23.3 39.62-25.03 42.65-26.75 46.45-26.75L46.45-26.75Q50.25-26.75 53.22-25.03 56.2-23.3 57.87-20.2 59.55-17.1 59.55-13.1L59.55-13.1ZM46.45-22.7Q43-22.7 40.67-20.6 38.35-18.5 37.95-15.1L37.95-15.1 54.95-15.1Q54.55-18.45 52.22-20.58 49.9-22.7 46.45-22.7L46.45-22.7ZM77.75 0.3Q73.7 0.3 70.52-1.45 67.34-3.2 65.55-6.28 63.75-9.35 63.75-13.25L63.75-13.25Q63.75-17.15 65.55-20.23 67.34-23.3 70.52-25.03 73.7-26.75 77.75-26.75L77.75-26.75Q81.34-26.75 84.17-25.3 87-23.85 88.55-21.1L88.55-21.1 84.9-18.75Q83.65-20.65 81.8-21.6 79.95-22.55 77.7-22.55L77.7-22.55Q75.09-22.55 73.02-21.4 70.95-20.25 69.77-18.13 68.59-16 68.59-13.25L68.59-13.25Q68.59-10.45 69.77-8.33 70.95-6.2 73.02-5.05 75.09-3.9 77.7-3.9L77.7-3.9Q79.95-3.9 81.8-4.85 83.65-5.8 84.9-7.7L84.9-7.7 88.55-5.4Q87-2.65 84.17-1.18 81.34 0.3 77.75 0.3L77.75 0.3ZM114.64-26.5L119.44-26.5 119.44 0 114.89 0 114.89-4Q113.44-1.95 111.07-0.83 108.69 0.3 105.89 0.3L105.89 0.3Q100.59 0.3 97.54-2.63 94.49-5.55 94.49-11.25L94.49-11.25 94.49-26.5 99.29-26.5 99.29-11.8Q99.29-7.95 101.14-5.98 102.99-4 106.44-4L106.44-4Q110.24-4 112.44-6.3 114.64-8.6 114.64-12.8L114.64-12.8 114.64-26.5ZM133.19-22.05Q134.44-24.35 136.89-25.55 139.34-26.75 142.84-26.75L142.84-26.75 142.84-22.1Q142.44-22.15 141.74-22.15L141.74-22.15Q137.84-22.15 135.62-19.83 133.39-17.5 133.39-13.2L133.39-13.2 133.39 0 128.59 0 128.59-26.5 133.19-26.5 133.19-22.05ZM148.74 0L148.74-26.5 153.54-26.5 153.54 0 148.74 0ZM151.14-31.6Q149.74-31.6 148.81-32.5 147.89-33.4 147.89-34.7L147.89-34.7Q147.89-36 148.81-36.93 149.74-37.85 151.14-37.85L151.14-37.85Q152.54-37.85 153.46-36.98 154.39-36.1 154.39-34.8L154.39-34.8Q154.39-33.45 153.46-32.52 152.54-31.6 151.14-31.6L151.14-31.6ZM176.09-5L177.59-1.55Q176.54-0.65 174.99-0.18 173.44 0.3 171.79 0.3L171.79 0.3Q167.79 0.3 165.59-1.85 163.39-4 163.39-8L163.39-8 163.39-22.55 158.89-22.55 158.89-26.5 163.39-26.5 163.39-32.3 168.19-32.3 168.19-26.5 175.79-26.5 175.79-22.55 168.19-22.55 168.19-8.2Q168.19-6.05 169.26-4.9 170.34-3.75 172.34-3.75L172.34-3.75Q174.54-3.75 176.09-5L176.09-5ZM201.63-26.5L206.33-26.5 193.48 2.65Q191.78 6.7 189.51 8.35 187.23 10 184.03 10L184.03 10Q182.08 10 180.26 9.38 178.43 8.75 177.23 7.55L177.23 7.55 179.28 3.95Q181.33 5.9 184.03 5.9L184.03 5.9Q185.78 5.9 186.96 4.98 188.13 4.05 189.08 1.8L189.08 1.8 189.93-0.05 178.23-26.5 183.23-26.5 192.48-5.3 201.63-26.5ZM235.18 0.4Q231.23 0.4 227.55-0.83 223.88-2.05 221.78-4L221.78-4 223.63-7.9Q225.63-6.1 228.75-4.98 231.88-3.85 235.18-3.85L235.18-3.85Q239.53-3.85 241.68-5.33 243.83-6.8 243.83-9.25L243.83-9.25Q243.83-11.05 242.65-12.18 241.48-13.3 239.75-13.9 238.03-14.5 234.88-15.25L234.88-15.25Q230.93-16.2 228.5-17.15 226.08-18.1 224.35-20.08 222.63-22.05 222.63-25.4L222.63-25.4Q222.63-28.2 224.1-30.45 225.58-32.7 228.58-34.05 231.58-35.4 236.03-35.4L236.03-35.4Q239.13-35.4 242.13-34.6 245.13-33.8 247.28-32.3L247.28-32.3 245.63-28.3Q243.43-29.7 240.93-30.43 238.43-31.15 236.03-31.15L236.03-31.15Q231.78-31.15 229.65-29.6 227.53-28.05 227.53-25.6L227.53-25.6Q227.53-23.8 228.73-22.68 229.93-21.55 231.7-20.93 233.48-20.3 236.53-19.6L236.53-19.6Q240.48-18.65 242.88-17.7 245.28-16.75 247-14.8 248.73-12.85 248.73-9.55L248.73-9.55Q248.73-6.8 247.23-4.53 245.73-2.25 242.68-0.93 239.63 0.4 235.18 0.4L235.18 0.4ZM269.38-26.75Q273.23-26.75 276.28-25.05 279.33-23.35 281.05-20.3 282.78-17.25 282.78-13.25L282.78-13.25Q282.78-9.25 281.05-6.18 279.33-3.1 276.28-1.4 273.23 0.3 269.38 0.3L269.38 0.3Q266.53 0.3 264.15-0.8 261.78-1.9 260.13-4L260.13-4 260.13 9.7 255.33 9.7 255.33-26.5 259.93-26.5 259.93-22.3Q261.53-24.5 263.98-25.63 266.43-26.75 269.38-26.75L269.38-26.75ZM268.98-3.9Q271.53-3.9 273.55-5.08 275.58-6.25 276.75-8.38 277.93-10.5 277.93-13.25L277.93-13.25Q277.93-16 276.75-18.13 275.58-20.25 273.55-21.4 271.53-22.55 268.98-22.55L268.98-22.55Q266.48-22.55 264.45-21.38 262.43-20.2 261.25-18.1 260.08-16 260.08-13.25L260.08-13.25Q260.08-10.5 261.23-8.38 262.38-6.25 264.43-5.08 266.48-3.9 268.98-3.9L268.98-3.9ZM313.37-13.1Q313.37-12.55 313.27-11.65L313.27-11.65 291.77-11.65Q292.22-8.15 294.85-6.03 297.47-3.9 301.37-3.9L301.37-3.9Q306.12-3.9 309.02-7.1L309.02-7.1 311.67-4Q309.87-1.9 307.2-0.8 304.52 0.3 301.22 0.3L301.22 0.3Q297.02 0.3 293.77-1.43 290.52-3.15 288.75-6.25 286.97-9.35 286.97-13.25L286.97-13.25Q286.97-17.1 288.7-20.2 290.42-23.3 293.45-25.03 296.47-26.75 300.27-26.75L300.27-26.75Q304.07-26.75 307.05-25.03 310.02-23.3 311.7-20.2 313.37-17.1 313.37-13.1L313.37-13.1ZM300.27-22.7Q296.82-22.7 294.5-20.6 292.17-18.5 291.77-15.1L291.77-15.1 308.77-15.1Q308.37-18.45 306.05-20.58 303.72-22.7 300.27-22.7L300.27-22.7ZM331.57 0.3Q327.52 0.3 324.35-1.45 321.17-3.2 319.37-6.28 317.57-9.35 317.57-13.25L317.57-13.25Q317.57-17.15 319.37-20.23 321.17-23.3 324.35-25.03 327.52-26.75 331.57-26.75L331.57-26.75Q335.17-26.75 338-25.3 340.82-23.85 342.37-21.1L342.37-21.1 338.72-18.75Q337.47-20.65 335.62-21.6 333.77-22.55 331.52-22.55L331.52-22.55Q328.92-22.55 326.85-21.4 324.77-20.25 323.6-18.13 322.42-16 322.42-13.25L322.42-13.25Q322.42-10.45 323.6-8.33 324.77-6.2 326.85-5.05 328.92-3.9 331.52-3.9L331.52-3.9Q333.77-3.9 335.62-4.85 337.47-5.8 338.72-7.7L338.72-7.7 342.37-5.4Q340.82-2.65 338-1.18 335.17 0.3 331.57 0.3L331.57 0.3ZM362.32-5L363.82-1.55Q362.77-0.65 361.22-0.18 359.67 0.3 358.02 0.3L358.02 0.3Q354.02 0.3 351.82-1.85 349.62-4 349.62-8L349.62-8 349.62-22.55 345.12-22.55 345.12-26.5 349.62-26.5 349.62-32.3 354.42-32.3 354.42-26.5 362.02-26.5 362.02-22.55 354.42-22.55 354.42-8.2Q354.42-6.05 355.49-4.9 356.57-3.75 358.57-3.75L358.57-3.75Q360.77-3.75 362.32-5L362.32-5ZM374.22-22.05Q375.47-24.35 377.92-25.55 380.37-26.75 383.87-26.75L383.87-26.75 383.87-22.1Q383.47-22.15 382.77-22.15L382.77-22.15Q378.87-22.15 376.64-19.83 374.42-17.5 374.42-13.2L374.42-13.2 374.42 0 369.62 0 369.62-26.5 374.22-26.5 374.22-22.05ZM410.01-26.5L414.81-26.5 414.81 0 410.26 0 410.26-4Q408.81-1.95 406.44-0.83 404.06 0.3 401.26 0.3L401.26 0.3Q395.96 0.3 392.91-2.63 389.86-5.55 389.86-11.25L389.86-11.25 389.86-26.5 394.66-26.5 394.66-11.8Q394.66-7.95 396.51-5.98 398.36-4 401.81-4L401.81-4Q405.61-4 407.81-6.3 410.01-8.6 410.01-12.8L410.01-12.8 410.01-26.5ZM457.11-26.75Q462.11-26.75 465.04-23.85 467.96-20.95 467.96-15.25L467.96-15.25 467.96 0 463.16 0 463.16-14.7Q463.16-18.55 461.39-20.5 459.61-22.45 456.31-22.45L456.31-22.45Q452.66-22.45 450.51-20.18 448.36-17.9 448.36-13.65L448.36-13.65 448.36 0 443.56 0 443.56-14.7Q443.56-18.55 441.79-20.5 440.01-22.45 436.71-22.45L436.71-22.45Q433.06-22.45 430.91-20.18 428.76-17.9 428.76-13.65L428.76-13.65 428.76 0 423.96 0 423.96-26.5 428.56-26.5 428.56-22.55Q430.01-24.6 432.36-25.68 434.71-26.75 437.71-26.75L437.71-26.75Q440.81-26.75 443.21-25.5 445.61-24.25 446.91-21.85L446.91-21.85Q448.41-24.15 451.09-25.45 453.76-26.75 457.11-26.75L457.11-26.75Z" opacity="1" transform="matrix(1,0,0,1,0,0)" fill="#ffffff" class="wordmark-text-0" data-fill-palette-color="primary" id="text-0"></path></svg></g></svg></g></svg></g></svg></g><g transform="matrix(1,0,0,1,418.3604507459517,0)"><svg viewBox="0 0 46.77759313231032 56.13311175877239" height="56.13311175877239" width="46.77759313231032"><g><svg xmlns="http://www.w3.org/2000/svg" xmlns:xlink="http://www.w3.org/1999/xlink" version="1.1" x="0" y="0" viewBox="12.5 5 75 90" enable-background="new 0 0 100 100" xml:space="preserve" height="56.13311175877239" width="46.77759313231032" class="icon-icon-0" data-fill-palette-color="accent" id="icon-0"><path d="M81.944 16.668C74.999 16.668 62.5 15.001 50 5 40 15 26.667 16.668 18.889 16.668 15 16.668 12.5 16.25 12.5 16.25v21.475C12.5 82.725 50 95 50 95s37.5-12.275 37.5-57.275V16.25C87.5 16.25 85.417 16.668 81.944 16.668zM45.313 65L29.375 48.125l4.688-5.625 11.25 7.969L68.75 33.125l4.219 3.75L45.313 65z" fill="#ffffff" data-fill-palette-color="accent"></path></svg></g></svg></g></svg></g></svg></g><defs></defs></svg><rect width="395.52" height="47.7315684129256" fill="none" stroke="none" visibility="hidden"></rect></g></svg></g></svg>